# xmcd CD database file
#
# Track frame offsets:
#	150
#	13840
#	28755
#	42635
#	56227
#	69715
#	81750
#	98322
#	115052
#	130620
#	147907
#	163252
#	175450
#	189002
#
# Disc length: 2750 seconds
#
# Revision: 4
# Processed by: cddbd v1.5.2PL0 Copyright (c) Steve Scherf et al.
# Submitted via: CDex 1.70beta2
#
DISCID=be0abc0e
DTITLE=James , Etta -  - Love Songs
DYEAR=2001
DGENRE=Blues
TTITLE0=At Last (Warren-Gordon) (10-1960)
TTITLE1=A Sunday Kind of Love (Belle-L.Prima-Leonard-Rhodes) (10-1960)
TTITLE2=My Dearest Darling (Gayten-Bocage) (5-1960)
TTITLE3=Trust in Me (Wever-Ager-Schwartz) (10-1960)
TTITLE4=If I Cant Have You (Fuqua-E.James) (5-1960)
TTITLE5=How Do You Speak To An Angel (Hilliard-Styne) (6-1962)
TTITLE6=Someone To Watch Over Me (Gershwin) (6-1962)
TTITLE7=Again (Cochran-Newman) (6-1962)
TTITLE8=I Want to Be Loved (S.Churchill) (6-1962)
TTITLE9=Lovin' Arms (Tom Jans) (12-1974)
TTITLE10=Lovin' You More Everyday (J.Mitchell) (2-1964)
TTITLE11=The Love of My Man (Ed Townsend) (8-1967)
TTITLE12=It Must Be Your Love (Higgins-Bernard-Dollison-Foster) (12-1966)
TTITLE13=Never My Love (Addrisi-Davis-Addrisi) (3-1973)
EXTD=YEAR: 2001
EXTT0=
EXTT1=
EXTT2=
EXTT3=
EXTT4=
EXTT5=
EXTT6=
EXTT7=
EXTT8=
EXTT9=
EXTT10=
EXTT11=
EXTT12=
EXTT13=
PLAYORDER=
